<mxfile host="app.diagrams.net" modified="2021-05-20T06:41:26.183Z" agent="5.0 (X11; Linux x86_64) AppleWebKit/537.36 (KHTML, like Gecko) Chrome/89.0.4389.114 Safari/537.36" etag="cUG35IrWBNIr0f1pw53n" version="14.6.0" type="github">
  <diagram id="hF3Q-vsOntTIBPH2pBfF" name="Page-1">
    <mxGraphModel dx="718" dy="319" grid="1" gridSize="10" guides="1" tooltips="1" connect="1" arrows="1" fold="1" page="1" pageScale="1" pageWidth="850" pageHeight="1100" math="0" shadow="0">
      <root>
        <mxCell id="0" />
        <mxCell id="1" parent="0" />
        <mxCell id="kuCioqgSsmLBqsGMWZ0k-1" value="Source&lt;br&gt;&lt;font style=&quot;font-size: 8px&quot;&gt;Input1&lt;/font&gt;" style="rounded=0;whiteSpace=wrap;html=1;" vertex="1" parent="1">
          <mxGeometry x="72" y="350" width="120" height="60" as="geometry" />
        </mxCell>
        <mxCell id="kuCioqgSsmLBqsGMWZ0k-22" value="" style="edgeStyle=orthogonalEdgeStyle;rounded=0;orthogonalLoop=1;jettySize=auto;html=1;" edge="1" parent="1" source="kuCioqgSsmLBqsGMWZ0k-2">
          <mxGeometry relative="1" as="geometry">
            <mxPoint x="549" y="380" as="targetPoint" />
          </mxGeometry>
        </mxCell>
        <mxCell id="kuCioqgSsmLBqsGMWZ0k-2" value="&amp;nbsp;Destination&lt;br&gt;&lt;font style=&quot;font-size: 8px&quot;&gt;Output1&lt;/font&gt;" style="rounded=0;whiteSpace=wrap;html=1;" vertex="1" parent="1">
          <mxGeometry x="349" y="350" width="120" height="60" as="geometry" />
        </mxCell>
        <mxCell id="kuCioqgSsmLBqsGMWZ0k-10" value="" style="shape=image;html=1;verticalAlign=top;verticalLabelPosition=bottom;labelBackgroundColor=#ffffff;imageAspect=0;aspect=fixed;image=https://cdn4.iconfinder.com/data/icons/refresh_cl/128/Network/Network_Pipe.png;rotation=-180;" vertex="1" parent="1">
          <mxGeometry x="167" y="355" width="210" height="210" as="geometry" />
        </mxCell>
        <mxCell id="kuCioqgSsmLBqsGMWZ0k-27" value="" style="edgeStyle=orthogonalEdgeStyle;rounded=0;orthogonalLoop=1;jettySize=auto;html=1;" edge="1" parent="1" source="kuCioqgSsmLBqsGMWZ0k-11" target="kuCioqgSsmLBqsGMWZ0k-26">
          <mxGeometry relative="1" as="geometry" />
        </mxCell>
        <mxCell id="kuCioqgSsmLBqsGMWZ0k-11" value="Tap Destination" style="rounded=0;whiteSpace=wrap;html=1;" vertex="1" parent="1">
          <mxGeometry x="216" y="467" width="120" height="53" as="geometry" />
        </mxCell>
        <mxCell id="kuCioqgSsmLBqsGMWZ0k-12" value="WIRE TAP" style="text;html=1;align=center;verticalAlign=middle;resizable=0;points=[];autosize=1;strokeColor=none;" vertex="1" parent="1">
          <mxGeometry x="246" y="340" width="70" height="20" as="geometry" />
        </mxCell>
        <mxCell id="kuCioqgSsmLBqsGMWZ0k-13" value="Source&lt;br&gt;&lt;font style=&quot;font-size: 8px&quot;&gt;Input1&lt;/font&gt;" style="rounded=0;whiteSpace=wrap;html=1;" vertex="1" parent="1">
          <mxGeometry x="73" y="200" width="136" height="60" as="geometry" />
        </mxCell>
        <mxCell id="kuCioqgSsmLBqsGMWZ0k-14" value="" style="shape=image;html=1;verticalAlign=top;verticalLabelPosition=bottom;labelBackgroundColor=#ffffff;imageAspect=0;aspect=fixed;image=https://cdn1.iconfinder.com/data/icons/nuvola2/128x128/filesystems/pipe.png;rotation=45;" vertex="1" parent="1">
          <mxGeometry x="206.60000000000002" y="158" width="144" height="144" as="geometry" />
        </mxCell>
        <mxCell id="kuCioqgSsmLBqsGMWZ0k-19" value="" style="edgeStyle=orthogonalEdgeStyle;rounded=0;orthogonalLoop=1;jettySize=auto;html=1;" edge="1" parent="1" source="kuCioqgSsmLBqsGMWZ0k-15">
          <mxGeometry relative="1" as="geometry">
            <mxPoint x="565" y="230" as="targetPoint" />
          </mxGeometry>
        </mxCell>
        <mxCell id="kuCioqgSsmLBqsGMWZ0k-15" value="Destination&lt;br&gt;&lt;span style=&quot;font-size: 8px&quot;&gt;Output1&lt;/span&gt;" style="rounded=0;whiteSpace=wrap;html=1;" vertex="1" parent="1">
          <mxGeometry x="349" y="200" width="136" height="60" as="geometry" />
        </mxCell>
        <mxCell id="kuCioqgSsmLBqsGMWZ0k-16" value="&lt;b&gt;Integration system&lt;/b&gt;" style="text;html=1;align=center;verticalAlign=middle;resizable=0;points=[];autosize=1;strokeColor=none;" vertex="1" parent="1">
          <mxGeometry x="60" y="170" width="120" height="20" as="geometry" />
        </mxCell>
        <mxCell id="kuCioqgSsmLBqsGMWZ0k-17" value="&lt;b&gt;WireTap Pattern in Integration system&lt;/b&gt;" style="text;html=1;align=center;verticalAlign=middle;resizable=0;points=[];autosize=1;strokeColor=none;" vertex="1" parent="1">
          <mxGeometry x="60" y="310" width="230" height="20" as="geometry" />
        </mxCell>
        <mxCell id="kuCioqgSsmLBqsGMWZ0k-20" value="Primary Flow" style="text;html=1;align=center;verticalAlign=middle;resizable=0;points=[];autosize=1;strokeColor=none;" vertex="1" parent="1">
          <mxGeometry x="484" y="200" width="90" height="20" as="geometry" />
        </mxCell>
        <mxCell id="kuCioqgSsmLBqsGMWZ0k-23" value="Primary Flow" style="text;html=1;align=center;verticalAlign=middle;resizable=0;points=[];autosize=1;strokeColor=none;" vertex="1" parent="1">
          <mxGeometry x="469" y="355" width="90" height="20" as="geometry" />
        </mxCell>
        <mxCell id="kuCioqgSsmLBqsGMWZ0k-31" value="" style="edgeStyle=orthogonalEdgeStyle;rounded=0;orthogonalLoop=1;jettySize=auto;html=1;" edge="1" parent="1" source="kuCioqgSsmLBqsGMWZ0k-26" target="kuCioqgSsmLBqsGMWZ0k-30">
          <mxGeometry relative="1" as="geometry" />
        </mxCell>
        <mxCell id="kuCioqgSsmLBqsGMWZ0k-26" value="" style="shape=cylinder;whiteSpace=wrap;html=1;boundedLbl=1;backgroundOutline=1;rounded=0;rotation=90;" vertex="1" parent="1">
          <mxGeometry x="416" y="431" width="44.23" height="125" as="geometry" />
        </mxCell>
        <mxCell id="kuCioqgSsmLBqsGMWZ0k-38" value="" style="edgeStyle=orthogonalEdgeStyle;rounded=0;orthogonalLoop=1;jettySize=auto;html=1;" edge="1" parent="1" source="kuCioqgSsmLBqsGMWZ0k-30" target="kuCioqgSsmLBqsGMWZ0k-37">
          <mxGeometry relative="1" as="geometry" />
        </mxCell>
        <mxCell id="kuCioqgSsmLBqsGMWZ0k-30" value="Logger" style="shape=process;whiteSpace=wrap;html=1;backgroundOutline=1;rounded=0;" vertex="1" parent="1">
          <mxGeometry x="546" y="467.00000000000006" width="80.01" height="53.09" as="geometry" />
        </mxCell>
        <mxCell id="kuCioqgSsmLBqsGMWZ0k-37" value="Audit log" style="whiteSpace=wrap;html=1;rounded=0;" vertex="1" parent="1">
          <mxGeometry x="666" y="465.28" width="80" height="56.45" as="geometry" />
        </mxCell>
      </root>
    </mxGraphModel>
  </diagram>
</mxfile>
